<?xml version="1.0" encoding="UTF-8" standalone="no"?>
<svg
   xmlns:dc="http://purl.org/dc/elements/1.1/"
   xmlns:cc="http://creativecommons.org/ns#"
   xmlns:rdf="http://www.w3.org/1999/02/22-rdf-syntax-ns#"
   xmlns:svg="http://www.w3.org/2000/svg"
   xmlns="http://www.w3.org/2000/svg"
   xmlns:sodipodi="http://sodipodi.sourceforge.net/DTD/sodipodi-0.dtd"
   xmlns:inkscape="http://www.inkscape.org/namespaces/inkscape"
   version="1.0"
   width="36.000000pt"
   height="36.000000pt"
   viewBox="0 0 36.000000 36.000000"
   preserveAspectRatio="xMidYMid meet"
   id="svg3367"
   inkscape:version="0.91 r13725"
   sodipodi:docname="turtle-symbolic.svg">
  <defs
     id="defs3377" />
  <sodipodi:namedview
     pagecolor="#ffffff"
     bordercolor="#666666"
     borderopacity="1"
     objecttolerance="10"
     gridtolerance="10"
     guidetolerance="10"
     inkscape:pageopacity="0"
     inkscape:pageshadow="2"
     inkscape:window-width="1920"
     inkscape:window-height="1025"
     id="namedview3375"
     showgrid="false"
     inkscape:zoom="2.3333333"
     inkscape:cx="-10.036921"
     inkscape:cy="48.557781"
     inkscape:window-x="0"
     inkscape:window-y="27"
     inkscape:window-maximized="1"
     inkscape:current-layer="svg3367" />
  <metadata
     id="metadata3369">
Created by potrace 1.13, written by Peter Selinger 2001-2015
<rdf:RDF>
  <cc:Work
     rdf:about="">
    <dc:format>image/svg+xml</dc:format>
    <dc:type
       rdf:resource="http://purl.org/dc/dcmitype/StillImage" />
    <dc:title></dc:title>
  </cc:Work>
</rdf:RDF>
</metadata>
  <path
     style="fill:#bebebe;fill-opacity:1"
     d="m 5.2349997,26.527949 c -0.263518,-0.163363 -0.298751,-0.872745 -0.100012,-2.013663 0.135812,-0.779674 0.187509,-1.649067 0.114074,-1.91842 C 5.1777317,22.334214 4.9843577,22.134902 4.6978327,22.0277 4.5059897,21.95592 4.2932057,21.92841 3.6825607,21.896435 1.9413237,21.805255 1.4003617,21.730036 1.1224477,21.540452 0.85791873,21.36 0.94435773,21.11405 1.5609097,20.292857 c 1.724447,-2.296809 7.415873,-7.898637 9.3803793,-9.232709 1.651687,-1.1216391 4.854216,-1.1970411 7.804426,-0.183754 1.688981,0.580102 2.981022,1.339056 4.215896,2.476444 1.933807,1.781144 2.765682,2.31395 3.691247,2.3642 0.321399,0.01745 0.431891,0.0053 0.66265,-0.07299 0.473053,-0.160452 0.641076,-0.289598 1.480207,-1.137722 0.453038,-0.457894 0.937208,-0.905187 1.091365,-1.008242 1.000137,-0.668604 2.333345,-0.797718 3.392645,-0.328558 0.910364,0.403196 1.671619,1.329933 1.929216,2.348592 0.117469,0.464528 0.09753,1.096838 -0.04628,1.467207 -0.208492,0.536977 -0.716921,1.046153 -1.349581,1.351562 -0.727879,0.351376 -1.272439,0.463491 -2.531653,0.521219 -0.518571,0.02378 -1.204006,0.0721 -1.523186,0.107386 -3.01988,0.333869 -4.790258,1.960371 -4.453591,4.091651 0.0242,0.153215 0.09026,0.490715 0.146787,0.75 0.204512,0.938032 0.18406,1.383645 -0.07715,1.681156 -0.180636,0.205735 -0.402378,0.29716 -0.858076,0.353787 -0.434248,0.05396 -0.754568,0.03038 -1.270494,-0.09356 -0.758461,-0.18219 -1.40801,-0.537738 -2.061298,-1.128308 -0.204894,-0.185223 -0.467326,-0.374791 -0.61627,-0.445164 -0.626442,-0.295979 -1.668181,-0.504992 -3.258146,-0.653707 -0.723422,-0.06766 -3.42308,-0.06817 -4.2,-7.84e-4 -1.89977,0.164773 -3.3060253,0.46189 -3.9854353,0.842052 -0.141582,0.07922 -0.604565,0.399399 -1.028851,0.711505 -1.446368,1.063953 -2.106093,1.448406 -2.542709,1.481758 -0.134748,0.01029 -0.276418,-0.0022 -0.318006,-0.02794 l 0,1e-6 z"
     id="path4316"
     inkscape:connector-curvature="0" />
</svg>
